<?xml version="1.0" encoding="UTF-8" standalone="no"?>
<!-- Uploaded to: SVG Repo, www.svgrepo.com, Generator: SVG Repo Mixer Tools -->

<svg
   width="800px"
   height="800px"
   viewBox="0 0 24 24"
   version="1.1"
   id="svg2"
   sodipodi:docname="01-applied barcode.svg"
   inkscape:export-filename="01-applied barcode.png"
   inkscape:export-xdpi="96"
   inkscape:export-ydpi="96"
   inkscape:version="1.3.2 (091e20e, 2023-11-25, custom)"
   xmlns:inkscape="http://www.inkscape.org/namespaces/inkscape"
   xmlns:sodipodi="http://sodipodi.sourceforge.net/DTD/sodipodi-0.dtd"
   xmlns="http://www.w3.org/2000/svg"
   xmlns:svg="http://www.w3.org/2000/svg">
  <defs
     id="defs2" />
  <sodipodi:namedview
     id="namedview2"
     pagecolor="#ffffff"
     bordercolor="#000000"
     borderopacity="0.25"
     inkscape:showpageshadow="2"
     inkscape:pageopacity="0.0"
     inkscape:pagecheckerboard="0"
     inkscape:deskcolor="#d1d1d1"
     inkscape:zoom="1.0075"
     inkscape:cx="400"
     inkscape:cy="399.50372"
     inkscape:window-width="1920"
     inkscape:window-height="1009"
     inkscape:window-x="-8"
     inkscape:window-y="-8"
     inkscape:window-maximized="1"
     inkscape:current-layer="svg2" />
  <path
     d="M23 4.5V8h-1V4.5A1.502 1.502 0 0 0 20.5 3H17V2h3.5A2.503 2.503 0 0 1 23 4.5zM4.5 22A1.502 1.502 0 0 1 3 20.5V17H2v3.5A2.503 2.503 0 0 0 4.5 23H8v-1zM22 20.5a1.502 1.502 0 0 1-1.5 1.5H17v1h3.5a2.503 2.503 0 0 0 2.5-2.5V17h-1zM3 4.5A1.502 1.502 0 0 1 4.5 3H8V2H4.5A2.503 2.503 0 0 0 2 4.5V8h1zM10 19V6H9v13zM6 6v13h2V6zm8 13V6h-2v13zm3-13v13h2V6zm-2 0v13h1V6z"
     id="path1" />
  <path
     fill="none"
     d="M0 0h24v24H0z"
     id="path2" />
</svg>
