<?xml version="1.0" encoding="UTF-8" standalone="no"?>
<!-- Uploaded to: SVG Repo, www.svgrepo.com, Generator: SVG Repo Mixer Tools -->

<svg
   width="800px"
   height="800px"
   viewBox="0 0 24 24"
   version="1.1"
   id="svg2"
   sodipodi:docname="03-received by production.svg"
   inkscape:version="1.3.2 (091e20e, 2023-11-25, custom)"
   inkscape:export-filename="03-received by production.png"
   inkscape:export-xdpi="96"
   inkscape:export-ydpi="96"
   xmlns:inkscape="http://www.inkscape.org/namespaces/inkscape"
   xmlns:sodipodi="http://sodipodi.sourceforge.net/DTD/sodipodi-0.dtd"
   xmlns="http://www.w3.org/2000/svg"
   xmlns:svg="http://www.w3.org/2000/svg">
  <defs
     id="defs2" />
  <sodipodi:namedview
     id="namedview2"
     pagecolor="#ffffff"
     bordercolor="#000000"
     borderopacity="0.25"
     inkscape:showpageshadow="2"
     inkscape:pageopacity="0.0"
     inkscape:pagecheckerboard="0"
     inkscape:deskcolor="#d1d1d1"
     inkscape:zoom="0.35620504"
     inkscape:cx="28.073718"
     inkscape:cy="-18.247917"
     inkscape:window-width="1920"
     inkscape:window-height="1009"
     inkscape:window-x="-8"
     inkscape:window-y="-8"
     inkscape:window-maximized="1"
     inkscape:current-layer="svg2" />
  <path
     fill="none"
     d="M0 0h24v24H0z"
     id="path2" />
  <g
     id="g1"
     transform="matrix(1.3,0,0,1.3,-4.2578712,-2.8062719)">
    <path
       d="M 16.902595,18.886175 H 5.9666573 c -0.5296875,0 -0.9606027,-0.465569 -0.9606027,-1.037946 V 6.531265 c 0,-0.5723772 0.4309152,-1.0379464 0.9606027,-1.0379464 h 2.4175781 a 0.5357143,0.5357143 0 0 1 0,1.0714286 H 6.0774832 V 17.814747 H 16.791769 v -3.482143 a 0.53571428,0.53571428 0 0 1 1.071428,0 v 3.515625 c 0,0.572377 -0.430915,1.037946 -0.960602,1.037946 z m 0.424888,-8.404017 A 0.53571428,0.53571428 0 0 1 16.791769,9.9464436 V 6.5647472 h -2.328014 a 0.5357143,0.5357143 0 0 1 0,-1.0714286 h 2.43884 c 0.529687,0 0.960602,0.4655692 0.960602,1.0379464 V 9.9464436 A 0.53571428,0.53571428 0 0 1 17.327483,10.482158 Z M 16.902595,6.5647472 Z"
       fill="#231815"
       id="path1"
       style="overflow:hidden;fill:currentColor;stroke-width:0.0167411" />
    <path
       d="M 14.648912,7.1841668 H 8.2203403 A 0.50223214,0.50223214 0 0 1 7.7181082,6.6819347 V 5.3761311 A 0.50223214,0.50223214 0 0 1 8.2203403,4.8738989 h 6.4285717 a 0.50223214,0.50223214 0 0 1 0.502232,0.5022322 V 6.6819347 A 0.50223214,0.50223214 0 0 1 14.648912,7.1841668 Z M 8.7225725,6.1797025 H 14.14668 V 5.8783632 H 8.7225725 Z"
       fill="#231815"
       id="path2-9"
       style="overflow:hidden;fill:currentColor;stroke-width:0.0167411" />
    <path
       d="M 12.760351,5.7611757 A 0.41852678,0.41852678 0 0 1 12.350363,5.4248476 c -0.08069,-0.4027902 -0.465737,-0.6950893 -0.915737,-0.6950893 -0.45,0 -0.835045,0.2922991 -0.915737,0.6950893 A 0.41852678,0.41852678 0 0 1 9.6985769,5.2604503 C 9.8574497,4.467928 10.587695,3.8927048 11.435128,3.8927048 c 0.847433,0 1.577679,0.5752232 1.736552,1.3677455 a 0.41852678,0.41852678 0 0 1 -0.328125,0.4925223 0.4235491,0.4235491 0 0 1 -0.0832,0.0082 z M 9.2917689,16.743318 H 7.1489118 A 0.53571428,0.53571428 0 0 1 6.6131975,16.207604 v -1.607143 a 0.53571428,0.53571428 0 0 1 0.5357143,-0.535714 h 2.1428571 a 0.53571428,0.53571428 0 0 1 0.5357143,0.535714 v 1.607143 A 0.53571428,0.53571428 0 0 1 9.2917689,16.743318 Z M 7.684626,15.67189 H 8.7560546 V 15.136175 H 7.684626 Z"
       fill="#231815"
       id="path3"
       style="overflow:hidden;fill:currentColor;stroke-width:0.0167411" />
    <path
       d="m 10.363197,14.868318 m 0.535715,0 h 3.214285 q 0.535715,0 0.535715,0.535715 v 0 q 0,0.535714 -0.535715,0.535714 h -3.214285 q -0.535715,0 -0.535715,-0.535714 v 0 q 0,-0.535715 0.535715,-0.535715 z"
       fill="#231815"
       id="path4"
       style="overflow:hidden;fill:currentColor;stroke-width:0.0167411" />
    <path
       d="M 9.2917689,13.529033 H 7.1489118 A 0.53571428,0.53571428 0 0 1 6.6131975,12.993318 v -1.607143 a 0.53571428,0.53571428 0 0 1 0.5357143,-0.535714 h 2.1428571 a 0.53571428,0.53571428 0 0 1 0.5357143,0.535714 v 1.607143 A 0.53571428,0.53571428 0 0 1 9.2917689,13.529033 Z M 7.684626,12.457604 H 8.7560546 V 11.92189 H 7.684626 Z"
       fill="#231815"
       id="path5"
       style="overflow:hidden;fill:#008000;stroke:none;stroke-width:0.0167411" />
    <path
       d="m 10.363197,11.654033 m 0.535715,0 h 2.142857 q 0.535714,0 0.535714,0.535714 v 0 q 0,0.535714 -0.535714,0.535714 h -2.142857 q -0.535715,0 -0.535715,-0.535714 v 0 q 0,-0.535714 0.535715,-0.535714 z"
       fill="#231815"
       id="path6"
       style="overflow:hidden;fill:#008000;stroke-width:0.0167411" />
    <path
       d="M 9.2917689,10.314747 H 7.1489118 A 0.53571428,0.53571428 0 0 1 6.6131975,9.7790328 V 8.17189 A 0.53571428,0.53571428 0 0 1 7.1489118,7.6361757 H 9.2917689 A 0.53571428,0.53571428 0 0 1 9.8274832,8.17189 V 9.7790328 A 0.53571428,0.53571428 0 0 1 9.2917689,10.314747 Z M 7.684626,9.2433186 H 8.7560546 V 8.7076043 H 7.684626 Z"
       fill="#231815"
       id="path7"
       style="overflow:hidden;fill:currentColor;stroke-width:0.0167411" />
    <path
       d="m 10.363197,8.4397471 m 0.535715,0 h 3.214285 q 0.535715,0 0.535715,0.5357143 v 0 q 0,0.5357143 -0.535715,0.5357143 h -3.214285 q -0.535715,0 -0.535715,-0.5357143 v 0 q 0,-0.5357143 0.535715,-0.5357143 z"
       fill="#231815"
       id="path8"
       style="overflow:hidden;fill:currentColor;stroke-width:0.0167411" />
    <path
       d="m 17.327483,14.868318 c -1.476897,0 -2.678571,-1.201674 -2.678571,-2.678571 0,-1.476897 1.201674,-2.6785713 2.678571,-2.6785713 1.476897,0 2.678572,1.2016743 2.678572,2.6785713 0,1.476897 -1.201675,2.678571 -2.678572,2.678571 z m 0,-4.285714 a 1.6071428,1.6071428 0 1 0 1.607143,1.607143 1.6089844,1.6089844 0 0 0 -1.607143,-1.607143 z"
       fill="#231815"
       id="path9"
       style="overflow:hidden;fill:#008000;stroke:none;stroke-width:0.0167411" />
    <path
       d="m 17.09813,13.277917 a 0.53420759,0.53420759 0 0 1 -0.346372,-0.127065 l -0.54057,-0.458873 a 0.53571428,0.53571428 0 1 1 0.692746,-0.817299 l 0.144978,0.122879 0.65106,-0.719866 a 0.53571428,0.53571428 0 1 1 0.794699,0.718527 l -0.999108,1.104911 a 0.53387276,0.53387276 0 0 1 -0.397433,0.176786 z"
       fill="#231815"
       id="path10"
       style="overflow:hidden;fill:#008000;stroke:none;stroke-width:0.0167411" />
  </g>
</svg>
