<?xml version="1.0" encoding="UTF-8" standalone="no"?>
<!-- Uploaded to: SVG Repo, www.svgrepo.com, Generator: SVG Repo Mixer Tools -->

<svg
   width="800px"
   height="800px"
   viewBox="0 0 24 24"
   version="1.1"
   id="svg2"
   sodipodi:docname="04-rejected by production.svg"
   inkscape:version="1.3.2 (091e20e, 2023-11-25, custom)"
   inkscape:export-filename="04-rejected by production.png"
   inkscape:export-xdpi="96"
   inkscape:export-ydpi="96"
   xmlns:inkscape="http://www.inkscape.org/namespaces/inkscape"
   xmlns:sodipodi="http://sodipodi.sourceforge.net/DTD/sodipodi-0.dtd"
   xmlns="http://www.w3.org/2000/svg"
   xmlns:svg="http://www.w3.org/2000/svg">
  <defs
     id="defs2" />
  <sodipodi:namedview
     id="namedview2"
     pagecolor="#ffffff"
     bordercolor="#000000"
     borderopacity="0.25"
     inkscape:showpageshadow="2"
     inkscape:pageopacity="0.0"
     inkscape:pagecheckerboard="0"
     inkscape:deskcolor="#d1d1d1"
     inkscape:zoom="0.251875"
     inkscape:cx="-416.87345"
     inkscape:cy="-184.61538"
     inkscape:window-width="1920"
     inkscape:window-height="1009"
     inkscape:window-x="-8"
     inkscape:window-y="-8"
     inkscape:window-maximized="1"
     inkscape:current-layer="svg2" />
  <path
     fill="none"
     d="M0 0h24v24H0z"
     id="path2" />
  <path
     d="M 17.715502,21.745756 H 3.4987833 c -0.6885938,0 -1.2487835,-0.60524 -1.2487835,-1.34933 V 5.6843726 c 0,-0.7440904 0.5601897,-1.3493303 1.2487835,-1.3493303 h 3.1428515 a 0.6964286,0.6964286 0 0 1 0,1.3928572 H 3.642857 V 20.352899 h 13.928571 v -4.526786 a 0.69642856,0.69642856 0 0 1 1.392857,0 v 4.570313 c 0,0.74409 -0.56019,1.34933 -1.248783,1.34933 z M 18.267857,10.820534 A 0.69642856,0.69642856 0 0 1 17.571428,10.124105 V 5.7278995 H 14.54501 a 0.6964286,0.6964286 0 0 1 0,-1.3928572 h 3.170492 c 0.688593,0 1.248783,0.6052399 1.248783,1.3493303 v 4.4397324 a 0.69642856,0.69642856 0 0 1 -0.696428,0.696429 z M 17.715502,5.7278995 Z"
     fill="#231815"
     id="path1"
     style="overflow:hidden;fill:currentColor;stroke-width:0.0217634" />
  <path
     d="M 14.785714,6.5331449 H 6.4285712 A 0.65290178,0.65290178 0 0 1 5.7756695,5.8802432 V 4.1826985 A 0.65290178,0.65290178 0 0 1 6.4285712,3.5297967 h 8.3571428 a 0.65290178,0.65290178 0 0 1 0.652902,0.6529018 V 5.8802432 A 0.65290178,0.65290178 0 0 1 14.785714,6.5331449 Z M 7.081473,5.2273413 h 7.05134 v -0.391741 h -7.05134 z"
     fill="#231815"
     id="path2-9"
     style="overflow:hidden;fill:currentColor;stroke-width:0.0217634" />
  <path
     d="M 12.330585,4.6832565 A 0.54408481,0.54408481 0 0 1 11.797601,4.24603 C 11.692704,3.7224027 11.192143,3.3424139 10.607143,3.3424139 c -0.585,0 -1.0855589,0.3799888 -1.1904585,0.9036161 A 0.54408481,0.54408481 0 0 1 8.3502788,4.0323135 c 0.2065346,-1.030279 1.1558535,-1.7780692 2.2575162,-1.7780692 1.101663,0 2.050983,0.7477902 2.257518,1.7780692 a 0.54408481,0.54408481 0 0 1 -0.426563,0.640279 0.55061383,0.55061383 0 0 1 -0.10816,0.01066 z M 7.8214284,18.960041 H 5.0357141 A 0.69642856,0.69642856 0 0 1 4.3392855,18.263613 v -2.089286 a 0.69642856,0.69642856 0 0 1 0.6964286,-0.696428 h 2.7857143 a 0.69642856,0.69642856 0 0 1 0.6964286,0.696428 v 2.089286 A 0.69642856,0.69642856 0 0 1 7.8214284,18.960041 Z M 5.7321426,17.567185 H 7.1249998 V 16.870756 H 5.7321426 Z"
     fill="#231815"
     id="path3"
     style="overflow:hidden;fill:currentColor;stroke-width:0.0217634" />
  <path
     d="m 9.2142849,16.522542 m 0.6964295,0 h 4.1785706 q 0.696429,0 0.696429,0.696429 v 0 q 0,0.696428 -0.696429,0.696428 H 9.9107144 q -0.6964295,0 -0.6964295,-0.696428 v 0 q 0,-0.696429 0.6964295,-0.696429 z"
     fill="#231815"
     id="path4"
     style="overflow:hidden;fill:currentColor;stroke-width:0.0217634" />
  <path
     d="M 7.8214284,14.781471 H 5.0357141 A 0.69642856,0.69642856 0 0 1 4.3392855,14.085042 v -2.089286 a 0.69642856,0.69642856 0 0 1 0.6964286,-0.696429 h 2.7857143 a 0.69642856,0.69642856 0 0 1 0.6964286,0.696429 v 2.089286 A 0.69642856,0.69642856 0 0 1 7.8214284,14.781471 Z M 5.7321426,13.388613 H 7.1249998 V 12.692185 H 5.7321426 Z"
     fill="#231815"
     id="path5"
     style="overflow:hidden;fill:#ff0000;stroke:none;stroke-width:0.0217634" />
  <path
     d="m 9.2142849,12.343971 m 0.6964295,0 h 2.7857146 q 0.696428,0 0.696428,0.696428 v 0 q 0,0.696428 -0.696428,0.696428 H 9.9107144 q -0.6964295,0 -0.6964295,-0.696428 v 0 q 0,-0.696428 0.6964295,-0.696428 z"
     fill="#231815"
     id="path6"
     style="overflow:hidden;fill:#ff0000;stroke-width:0.0217634" />
  <path
     d="M 7.8214284,10.602899 H 5.0357141 A 0.69642856,0.69642856 0 0 1 4.3392855,9.9064707 V 7.8171851 A 0.69642856,0.69642856 0 0 1 5.0357141,7.1207565 H 7.8214284 A 0.69642856,0.69642856 0 0 1 8.517857,7.8171851 V 9.9064707 A 0.69642856,0.69642856 0 0 1 7.8214284,10.602899 Z M 5.7321426,9.2100423 H 7.1249998 V 8.5136137 H 5.7321426 Z"
     fill="#231815"
     id="path7"
     style="overflow:hidden;fill:currentColor;stroke-width:0.0217634" />
  <path
     d="m 9.2142849,8.1653993 m 0.6964295,0 h 4.1785706 q 0.696429,0 0.696429,0.6964286 v 0 q 0,0.6964286 -0.696429,0.6964286 H 9.9107144 q -0.6964295,0 -0.6964295,-0.6964286 v 0 q 0,-0.6964286 0.6964295,-0.6964286 z"
     fill="#231815"
     id="path8"
     style="overflow:hidden;fill:currentColor;stroke-width:0.0217634" />
  <path
     d="m 18.267857,16.522542 c -1.919966,0 -3.482143,-1.562177 -3.482143,-3.482143 0,-1.919966 1.562177,-3.4821425 3.482143,-3.4821425 1.919966,0 3.482143,1.5621765 3.482143,3.4821425 0,1.919966 -1.562177,3.482143 -3.482143,3.482143 z m 0,-5.571429 a 2.0892856,2.0892856 0 1 0 2.089286,2.089286 2.0916797,2.0916797 0 0 0 -2.089286,-2.089286 z"
     fill="#231815"
     id="path9"
     style="overflow:hidden;fill:#ff0000;stroke:none;stroke-width:0.0217634" />
  <rect
     style="fill:#ff0000;stroke-width:1.13386"
     id="rect1"
     width="1.4292804"
     height="5.2109179"
     x="2.9037743"
     y="19.545696"
     transform="rotate(-45.201699)" />
</svg>
