<?xml version="1.0" encoding="UTF-8" standalone="no"?>
<!-- Uploaded to: SVG Repo, www.svgrepo.com, Generator: SVG Repo Mixer Tools -->

<svg
   fill="#000000"
   version="1.1"
   id="Capa_1"
   width="800px"
   height="800px"
   viewBox="0 0 49.641 49.64"
   xml:space="preserve"
   sodipodi:docname="05-given to engineer.svg"
   inkscape:version="1.3.2 (091e20e, 2023-11-25, custom)"
   inkscape:export-filename="05-given to engineer.png"
   inkscape:export-xdpi="96"
   inkscape:export-ydpi="96"
   xmlns:inkscape="http://www.inkscape.org/namespaces/inkscape"
   xmlns:sodipodi="http://sodipodi.sourceforge.net/DTD/sodipodi-0.dtd"
   xmlns="http://www.w3.org/2000/svg"
   xmlns:svg="http://www.w3.org/2000/svg"><defs
   id="defs1">
	
</defs><sodipodi:namedview
   id="namedview1"
   pagecolor="#ffffff"
   bordercolor="#000000"
   borderopacity="0.25"
   inkscape:showpageshadow="2"
   inkscape:pageopacity="0.0"
   inkscape:pagecheckerboard="0"
   inkscape:deskcolor="#d1d1d1"
   inkscape:zoom="0.50375"
   inkscape:cx="283.87097"
   inkscape:cy="469.47891"
   inkscape:window-width="1920"
   inkscape:window-height="1009"
   inkscape:window-x="-8"
   inkscape:window-y="-8"
   inkscape:window-maximized="1"
   inkscape:current-layer="Capa_1" />

<g
   id="g3"
   transform="matrix(0.93748915,0,0,0.93748915,1.5513797,1.5510021)"><path
     d="m 44.118,11.852 c -0.008,-0.014 -0.022,-0.021 -0.03,-0.034 -0.031,-0.046 -0.067,-0.085 -0.109,-0.122 -0.014,-0.01 -0.023,-0.021 -0.036,-0.03 -0.067,-0.05 -0.141,-0.091 -0.225,-0.11 L 23.068,6.721 C 22.96,6.697 22.842,6.702 22.732,6.736 L 8.002,11.57 C 7.96,11.585 7.927,11.613 7.89,11.635 7.866,11.649 7.837,11.652 7.816,11.668 7.81,11.673 7.807,11.682 7.801,11.687 7.795,11.693 7.785,11.694 7.779,11.701 l -7.573,6.81 c -0.222,0.202 -0.271,0.533 -0.116,0.788 0.112,0.187 0.317,0.303 0.535,0.303 0.076,0 0.149,-0.014 0.218,-0.039 l 6.73,-2.508 v 20.163 c 0,0.286 0.193,0.535 0.471,0.604 l 19.957,5.092 c 0.048,0.014 0.1,0.021 0.158,0.021 0.069,0 0.137,-0.011 0.202,-0.032 L 43.296,37.809 C 43.55,37.724 43.72,37.486 43.72,37.218 V 24.155 l 5.5,-1.904 c 0.177,-0.062 0.315,-0.196 0.381,-0.371 0.066,-0.175 0.051,-0.367 -0.043,-0.53 z M 7.571,15.718 3.485,17.242 7.571,13.565 Z M 27.532,41.505 8.822,36.732 V 12.978 l 18.71,5.012 z M 28.136,16.856 10.387,12.102 22.955,7.978 41.332,12.28 Z M 42.468,36.77 28.782,41.436 V 18.815 l 5.607,8.089 c 0.118,0.168 0.31,0.27 0.515,0.27 0.065,0 0.134,-0.012 0.205,-0.034 l 7.359,-2.55 z m -7.321,-10.97 -5.619,-8.104 13.763,-4.772 4.805,8.392 z"
     id="path1" /><rect
     style="fill:#ff0000;stroke-width:1.61099"
     id="rect1"
     width="1.1967258"
     height="11.127397"
     x="15.248727"
     y="-21.257639"
     transform="matrix(0.28565916,0.95833128,-0.95829512,0.28578044,0,0)" /><rect
     style="fill:#ff0000;stroke-width:1.61099"
     id="rect2"
     width="1.1967258"
     height="11.127397"
     x="18.205925"
     y="-25.961411"
     transform="matrix(0.28565916,0.95833128,-0.95829512,0.28578044,0,0)" /><rect
     style="fill:#ff0000;stroke-width:1.6617"
     id="rect3"
     width="1.2665102"
     height="11.186624"
     x="21.499174"
     y="-31.397919"
     transform="matrix(0.26991942,0.96288291,-0.9532215,0.30227268,0,0)" /></g></svg>
